<svg width="48" height="57" viewBox="0 0 48 57" fill="none" xmlns="http://www.w3.org/2000/svg">
<path d="M0.419998 15.74C0.651898 15.74 0.84 15.552 0.84 15.32C0.84 15.0881 0.651898 14.9 0.419998 14.9C0.187998 14.9 0 15.0881 0 15.32C0 15.552 0.187998 15.74 0.419998 15.74Z" fill="#414042"/>
<path d="M9.72 15.6702C9.952 15.6702 10.14 15.4822 10.14 15.2502C10.14 15.0182 9.952 14.8302 9.72 14.8302C9.4881 14.8302 9.3 15.0182 9.3 15.2502C9.3 15.4822 9.4881 15.6702 9.72 15.6702Z" fill="#414042"/>
<path d="M5.0701 18.4102C5.3021 18.4102 5.4901 18.2221 5.4901 17.9902C5.4901 17.7582 5.3021 17.5702 5.0701 17.5702C4.8382 17.5702 4.6501 17.7582 4.6501 17.9902C4.6501 18.2221 4.8382 18.4102 5.0701 18.4102Z" fill="#414042"/>
<path d="M0.419998 21.1602C0.651898 21.1602 0.84 20.9721 0.84 20.7402C0.84 20.5082 0.651898 20.3202 0.419998 20.3202C0.187998 20.3202 0 20.5082 0 20.7402C0 20.9721 0.187998 21.1602 0.419998 21.1602Z" fill="#414042"/>
<path d="M23.67 13.2902C24.1505 13.2902 24.54 12.9006 24.54 12.4202C24.54 11.9397 24.1505 11.5502 23.67 11.5502C23.1896 11.5502 22.8 11.9397 22.8 12.4202C22.8 12.9006 23.1896 13.2902 23.67 13.2902Z" fill="#414042"/>
<path d="M19.0201 16.0402C19.5006 16.0402 19.8901 15.6506 19.8901 15.1702C19.8901 14.6897 19.5006 14.3002 19.0201 14.3002C18.5397 14.3002 18.1501 14.6897 18.1501 15.1702C18.1501 15.6506 18.5397 16.0402 19.0201 16.0402Z" fill="#1C4D78"/>
<path d="M14.37 18.7902C14.8505 18.7902 15.24 18.4006 15.24 17.9202C15.24 17.4397 14.8505 17.0502 14.37 17.0502C13.8895 17.0502 13.5 17.4397 13.5 17.9202C13.5 18.4006 13.8895 18.7902 14.37 18.7902Z" fill="#1C4D78"/>
<path d="M9.7201 21.5402C10.2006 21.5402 10.5901 21.1506 10.5901 20.6702C10.5901 20.1897 10.2006 19.8002 9.7201 19.8002C9.2396 19.8002 8.8501 20.1897 8.8501 20.6702C8.8501 21.1506 9.2396 21.5402 9.7201 21.5402Z" fill="#1C4D78"/>
<path d="M5.0702 24.2802C5.5507 24.2802 5.9402 23.8906 5.9402 23.4102C5.9402 22.9297 5.5507 22.5402 5.0702 22.5402C4.5897 22.5402 4.2002 22.9297 4.2002 23.4102C4.2002 23.8906 4.5897 24.2802 5.0702 24.2802Z" fill="#1C4D78"/>
<path d="M0.419998 26.5801C0.651898 26.5801 0.84 26.3921 0.84 26.1601C0.84 25.9281 0.651898 25.7401 0.419998 25.7401C0.187998 25.7401 0 25.9281 0 26.1601C0 26.3921 0.187998 26.5801 0.419998 26.5801Z" fill="#414042"/>
<path d="M23.6702 19.5802C24.6311 19.5802 25.4102 18.8012 25.4102 17.8402C25.4102 16.8792 24.6311 16.1002 23.6702 16.1002C22.7092 16.1002 21.9302 16.8792 21.9302 17.8402C21.9302 18.8012 22.7092 19.5802 23.6702 19.5802Z" fill="#414042"/>
<path d="M19.0203 22.3302C19.9812 22.3302 20.7603 21.5512 20.7603 20.5902C20.7603 19.6292 19.9812 18.8502 19.0203 18.8502C18.0593 18.8502 17.2803 19.6292 17.2803 20.5902C17.2803 21.5512 18.0593 22.3302 19.0203 22.3302Z" fill="#1C4D78"/>
<path d="M14.3701 25.0802C15.3311 25.0802 16.1101 24.3012 16.1101 23.3402C16.1101 22.3792 15.3311 21.6002 14.3701 21.6002C13.4092 21.6002 12.6301 22.3792 12.6301 23.3402C12.6301 24.3012 13.4092 25.0802 14.3701 25.0802Z" fill="#1C4D78"/>
<path d="M9.72 27.8202C10.6809 27.8202 11.46 27.0412 11.46 26.0802C11.46 25.1192 10.6809 24.3402 9.72 24.3402C8.759 24.3402 7.98 25.1192 7.98 26.0802C7.98 27.0412 8.759 27.8202 9.72 27.8202Z" fill="#1C4D78"/>
<path d="M5.0702 29.7001C5.5507 29.7001 5.9402 29.3106 5.9402 28.8301C5.9402 28.3496 5.5507 27.9601 5.0702 27.9601C4.5897 27.9601 4.2002 28.3496 4.2002 28.8301C4.2002 29.3106 4.5897 29.7001 5.0702 29.7001Z" fill="#1C4D78"/>
<path d="M0.419998 32C0.651898 32 0.84 31.812 0.84 31.58C0.84 31.3481 0.651898 31.16 0.419998 31.16C0.187998 31.16 0 31.3481 0 31.58C0 31.812 0.187998 32 0.419998 32Z" fill="#414042"/>
<path d="M23.6702 25.0001C24.6311 25.0001 25.4102 24.2211 25.4102 23.2601C25.4102 22.2992 24.6311 21.5201 23.6702 21.5201C22.7092 21.5201 21.9302 22.2992 21.9302 23.2601C21.9302 24.2211 22.7092 25.0001 23.6702 25.0001Z" fill="#414042"/>
<path d="M19.0203 27.7501C19.9812 27.7501 20.7603 26.9711 20.7603 26.0101C20.7603 25.0492 19.9812 24.2701 19.0203 24.2701C18.0593 24.2701 17.2803 25.0492 17.2803 26.0101C17.2803 26.9711 18.0593 27.7501 19.0203 27.7501Z" fill="#1C4D78"/>
<path d="M14.3701 30.4901C15.3311 30.4901 16.1101 29.7111 16.1101 28.7501C16.1101 27.7892 15.3311 27.0101 14.3701 27.0101C13.4092 27.0101 12.6301 27.7892 12.6301 28.7501C12.6301 29.7111 13.4092 30.4901 14.3701 30.4901Z" fill="#1C4D78"/>
<path d="M9.72 33.2401C10.6809 33.2401 11.46 32.4611 11.46 31.5001C11.46 30.5392 10.6809 29.7601 9.72 29.7601C8.759 29.7601 7.98 30.5392 7.98 31.5001C7.98 32.4611 8.759 33.2401 9.72 33.2401Z" fill="#1C4D78"/>
<path d="M5.0702 35.12C5.5507 35.12 5.9402 34.7305 5.9402 34.25C5.9402 33.7695 5.5507 33.38 5.0702 33.38C4.5897 33.38 4.2002 33.7695 4.2002 34.25C4.2002 34.7305 4.5897 35.12 5.0702 35.12Z" fill="#1C4D78"/>
<path d="M0.419998 37.4202C0.651898 37.4202 0.84 37.2322 0.84 37.0002C0.84 36.7682 0.651898 36.5802 0.419998 36.5802C0.187998 36.5802 0 36.7682 0 37.0002C0 37.2322 0.187998 37.4202 0.419998 37.4202Z" fill="#414042"/>
<path d="M23.67 29.5502C24.1505 29.5502 24.54 29.1607 24.54 28.6802C24.54 28.1997 24.1505 27.8102 23.67 27.8102C23.1896 27.8102 22.8 28.1997 22.8 28.6802C22.8 29.1607 23.1896 29.5502 23.67 29.5502Z" fill="#414042"/>
<path d="M19.0201 32.2902C19.5006 32.2902 19.8901 31.9006 19.8901 31.4202C19.8901 30.9397 19.5006 30.5502 19.0201 30.5502C18.5397 30.5502 18.1501 30.9397 18.1501 31.4202C18.1501 31.9006 18.5397 32.2902 19.0201 32.2902Z" fill="#1C4D78"/>
<path d="M14.37 35.0402C14.8505 35.0402 15.24 34.6506 15.24 34.1702C15.24 33.6897 14.8505 33.3002 14.37 33.3002C13.8895 33.3002 13.5 33.6897 13.5 34.1702C13.5 34.6506 13.8895 35.0402 14.37 35.0402Z" fill="#1C4D78"/>
<path d="M9.7201 37.7902C10.2006 37.7902 10.5901 37.4006 10.5901 36.9202C10.5901 36.4397 10.2006 36.0502 9.7201 36.0502C9.2396 36.0502 8.8501 36.4397 8.8501 36.9202C8.8501 37.4006 9.2396 37.7902 9.7201 37.7902Z" fill="#1C4D78"/>
<path d="M5.0701 40.0901C5.3021 40.0901 5.4901 39.9021 5.4901 39.6701C5.4901 39.4382 5.3021 39.2501 5.0701 39.2501C4.8382 39.2501 4.6501 39.4382 4.6501 39.6701C4.6501 39.9021 4.8382 40.0901 5.0701 40.0901Z" fill="#414042"/>
<path d="M0.419998 42.8401C0.651898 42.8401 0.84 42.6521 0.84 42.4201C0.84 42.1882 0.651898 42.0001 0.419998 42.0001C0.187998 42.0001 0 42.1882 0 42.4201C0 42.6521 0.187998 42.8401 0.419998 42.8401Z" fill="#414042"/>
<path d="M23.67 34.51C23.9019 34.51 24.09 34.322 24.09 34.09C24.09 33.8581 23.9019 33.67 23.67 33.67C23.438 33.67 23.25 33.8581 23.25 34.09C23.25 34.322 23.438 34.51 23.67 34.51Z" fill="#414042"/>
<path d="M19.0201 37.26C19.2521 37.26 19.4401 37.072 19.4401 36.84C19.4401 36.6081 19.2521 36.42 19.0201 36.42C18.7882 36.42 18.6001 36.6081 18.6001 36.84C18.6001 37.072 18.7882 37.26 19.0201 37.26Z" fill="#414042"/>
<path d="M14.3702 40.01C14.6022 40.01 14.7902 39.822 14.7902 39.59C14.7902 39.3581 14.6022 39.17 14.3702 39.17C14.1382 39.17 13.9502 39.3581 13.9502 39.59C13.9502 39.822 14.1382 40.01 14.3702 40.01Z" fill="#414042"/>
<path d="M9.72 42.76C9.952 42.76 10.14 42.572 10.14 42.34C10.14 42.1081 9.952 41.92 9.72 41.92C9.4881 41.92 9.3 42.1081 9.3 42.34C9.3 42.572 9.4881 42.76 9.72 42.76Z" fill="#414042"/>
<path d="M5.0701 45.51C5.3021 45.51 5.4901 45.322 5.4901 45.09C5.4901 44.8581 5.3021 44.67 5.0701 44.67C4.8382 44.67 4.6501 44.8581 4.6501 45.09C4.6501 45.322 4.8382 45.51 5.0701 45.51Z" fill="#414042"/>
<path d="M23.67 39.9302C23.9019 39.9302 24.09 39.7422 24.09 39.5102C24.09 39.2782 23.9019 39.0902 23.67 39.0902C23.438 39.0902 23.25 39.2782 23.25 39.5102C23.25 39.7422 23.438 39.9302 23.67 39.9302Z" fill="#414042"/>
<path d="M19.0201 42.6802C19.2521 42.6802 19.4401 42.4922 19.4401 42.2602C19.4401 42.0282 19.2521 41.8402 19.0201 41.8402C18.7882 41.8402 18.6001 42.0282 18.6001 42.2602C18.6001 42.4922 18.7882 42.6802 19.0201 42.6802Z" fill="#414042"/>
<path d="M14.3702 45.4302C14.6022 45.4302 14.7902 45.2422 14.7902 45.0102C14.7902 44.7782 14.6022 44.5902 14.3702 44.5902C14.1382 44.5902 13.9502 44.7782 13.9502 45.0102C13.9502 45.2422 14.1382 45.4302 14.3702 45.4302Z" fill="#414042"/>
<path d="M9.72 48.1802C9.952 48.1802 10.14 47.9922 10.14 47.7602C10.14 47.5282 9.952 47.3402 9.72 47.3402C9.4881 47.3402 9.3 47.5282 9.3 47.7602C9.3 47.9922 9.4881 48.1802 9.72 48.1802Z" fill="#414042"/>
<path d="M23.67 45.3501C23.9019 45.3501 24.09 45.1621 24.09 44.9301C24.09 44.6982 23.9019 44.5101 23.67 44.5101C23.438 44.5101 23.25 44.6982 23.25 44.9301C23.25 45.1621 23.438 45.3501 23.67 45.3501Z" fill="#414042"/>
<path d="M19.0201 48.1001C19.2521 48.1001 19.4401 47.9121 19.4401 47.6801C19.4401 47.4482 19.2521 47.2601 19.0201 47.2601C18.7882 47.2601 18.6001 47.4482 18.6001 47.6801C18.6001 47.9121 18.7882 48.1001 19.0201 48.1001Z" fill="#414042"/>
<path d="M14.3702 50.8501C14.6022 50.8501 14.7902 50.6621 14.7902 50.4301C14.7902 50.1982 14.6022 50.0101 14.3702 50.0101C14.1382 50.0101 13.9502 50.1982 13.9502 50.4301C13.9502 50.6621 14.1382 50.8501 14.3702 50.8501Z" fill="#414042"/>
<path d="M23.67 50.77C23.9019 50.77 24.09 50.582 24.09 50.35C24.09 50.1181 23.9019 49.93 23.67 49.93C23.438 49.93 23.25 50.1181 23.25 50.35C23.25 50.582 23.438 50.77 23.67 50.77Z" fill="#414042"/>
<path d="M19.0201 53.52C19.2521 53.52 19.4401 53.332 19.4401 53.1C19.4401 52.8681 19.2521 52.68 19.0201 52.68C18.7882 52.68 18.6001 52.8681 18.6001 53.1C18.6001 53.332 18.7882 53.52 19.0201 53.52Z" fill="#414042"/>
<path d="M23.67 56.1902C23.9019 56.1902 24.09 56.0022 24.09 55.7702C24.09 55.5383 23.9019 55.3502 23.67 55.3502C23.438 55.3502 23.25 55.5383 23.25 55.7702C23.25 56.0022 23.438 56.1902 23.67 56.1902Z" fill="#414042"/>
<path d="M46.86 15.74C47.0919 15.74 47.28 15.552 47.28 15.32C47.28 15.0881 47.0919 14.9 46.86 14.9C46.628 14.9 46.4399 15.0881 46.4399 15.32C46.4399 15.552 46.628 15.74 46.86 15.74Z" fill="#414042"/>
<path d="M37.5501 15.6702C37.7821 15.6702 37.9701 15.4822 37.9701 15.2502C37.9701 15.0182 37.7821 14.8302 37.5501 14.8302C37.3182 14.8302 37.1301 15.0182 37.1301 15.2502C37.1301 15.4822 37.3182 15.6702 37.5501 15.6702Z" fill="#414042"/>
<path d="M42.2101 18.4102C42.442 18.4102 42.63 18.2221 42.63 17.9902C42.63 17.7582 42.442 17.5702 42.2101 17.5702C41.9781 17.5702 41.79 17.7582 41.79 17.9902C41.79 18.2221 41.9781 18.4102 42.2101 18.4102Z" fill="#414042"/>
<path d="M46.86 21.1602C47.0919 21.1602 47.28 20.9721 47.28 20.7402C47.28 20.5082 47.0919 20.3202 46.86 20.3202C46.628 20.3202 46.4399 20.5082 46.4399 20.7402C46.4399 20.9721 46.628 21.1602 46.86 21.1602Z" fill="#414042"/>
<path d="M23.6 13.2902C24.0805 13.2902 24.47 12.9006 24.47 12.4202C24.47 11.9397 24.0805 11.5502 23.6 11.5502C23.1195 11.5502 22.73 11.9397 22.73 12.4202C22.73 12.9006 23.1195 13.2902 23.6 13.2902Z" fill="#1C4D78"/>
<path d="M28.2502 16.0402C28.7306 16.0402 29.1201 15.6506 29.1201 15.1702C29.1201 14.6897 28.7306 14.3002 28.2502 14.3002C27.7697 14.3002 27.3801 14.6897 27.3801 15.1702C27.3801 15.6506 27.7697 16.0402 28.2502 16.0402Z" fill="#1C4D78"/>
<path d="M32.9003 18.7902C33.3808 18.7902 33.7703 18.4006 33.7703 17.9202C33.7703 17.4397 33.3808 17.0502 32.9003 17.0502C32.4198 17.0502 32.0303 17.4397 32.0303 17.9202C32.0303 18.4006 32.4198 18.7902 32.9003 18.7902Z" fill="#1C4D78"/>
<path d="M37.5502 21.5402C38.0307 21.5402 38.4202 21.1506 38.4202 20.6702C38.4202 20.1897 38.0307 19.8002 37.5502 19.8002C37.0697 19.8002 36.6802 20.1897 36.6802 20.6702C36.6802 21.1506 37.0697 21.5402 37.5502 21.5402Z" fill="#1C4D78"/>
<path d="M42.2101 24.2802C42.6906 24.2802 43.0801 23.8906 43.0801 23.4102C43.0801 22.9297 42.6906 22.5402 42.2101 22.5402C41.7296 22.5402 41.3401 22.9297 41.3401 23.4102C41.3401 23.8906 41.7296 24.2802 42.2101 24.2802Z" fill="#1C4D78"/>
<path d="M46.86 26.5801C47.0919 26.5801 47.28 26.3921 47.28 26.1601C47.28 25.9281 47.0919 25.7401 46.86 25.7401C46.628 25.7401 46.4399 25.9281 46.4399 26.1601C46.4399 26.3921 46.628 26.5801 46.86 26.5801Z" fill="#414042"/>
<path d="M23.6001 19.5802C24.5611 19.5802 25.3401 18.8012 25.3401 17.8402C25.3401 16.8792 24.5611 16.1002 23.6001 16.1002C22.6391 16.1002 21.8601 16.8792 21.8601 17.8402C21.8601 18.8012 22.6391 19.5802 23.6001 19.5802Z" fill="#1C4D78"/>
<path d="M28.2503 22.3302C29.2113 22.3302 29.9903 21.5512 29.9903 20.5902C29.9903 19.6292 29.2113 18.8502 28.2503 18.8502C27.2893 18.8502 26.5103 19.6292 26.5103 20.5902C26.5103 21.5512 27.2893 22.3302 28.2503 22.3302Z" fill="#1C4D78"/>
<path d="M32.9002 25.0802C33.8612 25.0802 34.6402 24.3012 34.6402 23.3402C34.6402 22.3792 33.8612 21.6002 32.9002 21.6002C31.9392 21.6002 31.1602 22.3792 31.1602 23.3402C31.1602 24.3012 31.9392 25.0802 32.9002 25.0802Z" fill="#1C4D78"/>
<path d="M37.55 27.8202C38.511 27.8202 39.29 27.0412 39.29 26.0802C39.29 25.1192 38.511 24.3402 37.55 24.3402C36.5891 24.3402 35.8101 25.1192 35.8101 26.0802C35.8101 27.0412 36.5891 27.8202 37.55 27.8202Z" fill="#1C4D78"/>
<path d="M42.2101 29.7001C42.6906 29.7001 43.0801 29.3106 43.0801 28.8301C43.0801 28.3496 42.6906 27.9601 42.2101 27.9601C41.7296 27.9601 41.3401 28.3496 41.3401 28.8301C41.3401 29.3106 41.7296 29.7001 42.2101 29.7001Z" fill="#1C4D78"/>
<path d="M46.86 32C47.0919 32 47.28 31.812 47.28 31.58C47.28 31.3481 47.0919 31.16 46.86 31.16C46.628 31.16 46.4399 31.3481 46.4399 31.58C46.4399 31.812 46.628 32 46.86 32Z" fill="#414042"/>
<path d="M23.6001 25.0001C24.5611 25.0001 25.3401 24.2211 25.3401 23.2601C25.3401 22.2992 24.5611 21.5201 23.6001 21.5201C22.6391 21.5201 21.8601 22.2992 21.8601 23.2601C21.8601 24.2211 22.6391 25.0001 23.6001 25.0001Z" fill="#1C4D78"/>
<path d="M28.2503 27.7501C29.2113 27.7501 29.9903 26.9711 29.9903 26.0101C29.9903 25.0492 29.2113 24.2701 28.2503 24.2701C27.2893 24.2701 26.5103 25.0492 26.5103 26.0101C26.5103 26.9711 27.2893 27.7501 28.2503 27.7501Z" fill="#1C4D78"/>
<path d="M32.9002 30.4901C33.8612 30.4901 34.6402 29.7111 34.6402 28.7501C34.6402 27.7892 33.8612 27.0101 32.9002 27.0101C31.9392 27.0101 31.1602 27.7892 31.1602 28.7501C31.1602 29.7111 31.9392 30.4901 32.9002 30.4901Z" fill="#1C4D78"/>
<path d="M37.55 33.2401C38.511 33.2401 39.29 32.4611 39.29 31.5001C39.29 30.5392 38.511 29.7601 37.55 29.7601C36.5891 29.7601 35.8101 30.5392 35.8101 31.5001C35.8101 32.4611 36.5891 33.2401 37.55 33.2401Z" fill="#1C4D78"/>
<path d="M42.2101 35.12C42.6906 35.12 43.0801 34.7305 43.0801 34.25C43.0801 33.7695 42.6906 33.38 42.2101 33.38C41.7296 33.38 41.3401 33.7695 41.3401 34.25C41.3401 34.7305 41.7296 35.12 42.2101 35.12Z" fill="#1C4D78"/>
<path d="M46.86 37.4202C47.0919 37.4202 47.28 37.2322 47.28 37.0002C47.28 36.7682 47.0919 36.5802 46.86 36.5802C46.628 36.5802 46.4399 36.7682 46.4399 37.0002C46.4399 37.2322 46.628 37.4202 46.86 37.4202Z" fill="#414042"/>
<path d="M23.6 29.5502C24.0805 29.5502 24.47 29.1607 24.47 28.6802C24.47 28.1997 24.0805 27.8102 23.6 27.8102C23.1195 27.8102 22.73 28.1997 22.73 28.6802C22.73 29.1607 23.1195 29.5502 23.6 29.5502Z" fill="#1C4D78"/>
<path d="M28.2502 32.2902C28.7306 32.2902 29.1201 31.9006 29.1201 31.4202C29.1201 30.9397 28.7306 30.5502 28.2502 30.5502C27.7697 30.5502 27.3801 30.9397 27.3801 31.4202C27.3801 31.9006 27.7697 32.2902 28.2502 32.2902Z" fill="#1C4D78"/>
<path d="M32.9003 35.0402C33.3808 35.0402 33.7703 34.6506 33.7703 34.1702C33.7703 33.6897 33.3808 33.3002 32.9003 33.3002C32.4198 33.3002 32.0303 33.6897 32.0303 34.1702C32.0303 34.6506 32.4198 35.0402 32.9003 35.0402Z" fill="#1C4D78"/>
<path d="M37.5502 37.7902C38.0307 37.7902 38.4202 37.4006 38.4202 36.9202C38.4202 36.4397 38.0307 36.0502 37.5502 36.0502C37.0697 36.0502 36.6802 36.4397 36.6802 36.9202C36.6802 37.4006 37.0697 37.7902 37.5502 37.7902Z" fill="#1C4D78"/>
<path d="M42.2101 40.0901C42.442 40.0901 42.63 39.9021 42.63 39.6701C42.63 39.4382 42.442 39.2501 42.2101 39.2501C41.9781 39.2501 41.79 39.4382 41.79 39.6701C41.79 39.9021 41.9781 40.0901 42.2101 40.0901Z" fill="#414042"/>
<path d="M46.86 42.8401C47.0919 42.8401 47.28 42.6521 47.28 42.4201C47.28 42.1882 47.0919 42.0001 46.86 42.0001C46.628 42.0001 46.4399 42.1882 46.4399 42.4201C46.4399 42.6521 46.628 42.8401 46.86 42.8401Z" fill="#414042"/>
<path d="M23.6002 34.51C23.8321 34.51 24.0202 34.322 24.0202 34.09C24.0202 33.8581 23.8321 33.67 23.6002 33.67C23.3682 33.67 23.1802 33.8581 23.1802 34.09C23.1802 34.322 23.3682 34.51 23.6002 34.51Z" fill="#414042"/>
<path d="M28.2501 37.26C28.4821 37.26 28.6701 37.072 28.6701 36.84C28.6701 36.6081 28.4821 36.42 28.2501 36.42C28.0181 36.42 27.8301 36.6081 27.8301 36.84C27.8301 37.072 28.0181 37.26 28.2501 37.26Z" fill="#414042"/>
<path d="M32.9 40.01C33.132 40.01 33.32 39.822 33.32 39.59C33.32 39.3581 33.132 39.17 32.9 39.17C32.668 39.17 32.48 39.3581 32.48 39.59C32.48 39.822 32.668 40.01 32.9 40.01Z" fill="#414042"/>
<path d="M37.5501 42.76C37.7821 42.76 37.9701 42.572 37.9701 42.34C37.9701 42.1081 37.7821 41.92 37.5501 41.92C37.3182 41.92 37.1301 42.1081 37.1301 42.34C37.1301 42.572 37.3182 42.76 37.5501 42.76Z" fill="#414042"/>
<path d="M42.2101 45.51C42.442 45.51 42.63 45.322 42.63 45.09C42.63 44.8581 42.442 44.67 42.2101 44.67C41.9781 44.67 41.79 44.8581 41.79 45.09C41.79 45.322 41.9781 45.51 42.2101 45.51Z" fill="#414042"/>
<path d="M23.6002 39.9302C23.8321 39.9302 24.0202 39.7422 24.0202 39.5102C24.0202 39.2782 23.8321 39.0902 23.6002 39.0902C23.3682 39.0902 23.1802 39.2782 23.1802 39.5102C23.1802 39.7422 23.3682 39.9302 23.6002 39.9302Z" fill="#414042"/>
<path d="M28.2501 42.6802C28.4821 42.6802 28.6701 42.4922 28.6701 42.2602C28.6701 42.0282 28.4821 41.8402 28.2501 41.8402C28.0181 41.8402 27.8301 42.0282 27.8301 42.2602C27.8301 42.4922 28.0181 42.6802 28.2501 42.6802Z" fill="#414042"/>
<path d="M32.9 45.4302C33.132 45.4302 33.32 45.2422 33.32 45.0102C33.32 44.7782 33.132 44.5902 32.9 44.5902C32.668 44.5902 32.48 44.7782 32.48 45.0102C32.48 45.2422 32.668 45.4302 32.9 45.4302Z" fill="#414042"/>
<path d="M37.5501 48.1802C37.7821 48.1802 37.9701 47.9922 37.9701 47.7602C37.9701 47.5282 37.7821 47.3402 37.5501 47.3402C37.3182 47.3402 37.1301 47.5282 37.1301 47.7602C37.1301 47.9922 37.3182 48.1802 37.5501 48.1802Z" fill="#414042"/>
<path d="M23.6002 45.3501C23.8321 45.3501 24.0202 45.1621 24.0202 44.9301C24.0202 44.6982 23.8321 44.5101 23.6002 44.5101C23.3682 44.5101 23.1802 44.6982 23.1802 44.9301C23.1802 45.1621 23.3682 45.3501 23.6002 45.3501Z" fill="#414042"/>
<path d="M28.2501 48.1001C28.4821 48.1001 28.6701 47.9121 28.6701 47.6801C28.6701 47.4482 28.4821 47.2601 28.2501 47.2601C28.0181 47.2601 27.8301 47.4482 27.8301 47.6801C27.8301 47.9121 28.0181 48.1001 28.2501 48.1001Z" fill="#414042"/>
<path d="M32.9 50.8501C33.132 50.8501 33.32 50.6621 33.32 50.4301C33.32 50.1982 33.132 50.0101 32.9 50.0101C32.668 50.0101 32.48 50.1982 32.48 50.4301C32.48 50.6621 32.668 50.8501 32.9 50.8501Z" fill="#414042"/>
<path d="M23.6002 50.77C23.8321 50.77 24.0202 50.582 24.0202 50.35C24.0202 50.1181 23.8321 49.93 23.6002 49.93C23.3682 49.93 23.1802 50.1181 23.1802 50.35C23.1802 50.582 23.3682 50.77 23.6002 50.77Z" fill="#414042"/>
<path d="M28.2501 53.52C28.4821 53.52 28.6701 53.332 28.6701 53.1C28.6701 52.8681 28.4821 52.68 28.2501 52.68C28.0181 52.68 27.8301 52.8681 27.8301 53.1C27.8301 53.332 28.0181 53.52 28.2501 53.52Z" fill="#414042"/>
<path d="M23.6002 56.1902C23.8321 56.1902 24.0202 56.0022 24.0202 55.7702C24.0202 55.5383 23.8321 55.3502 23.6002 55.3502C23.3682 55.3502 23.1802 55.5383 23.1802 55.7702C23.1802 56.0022 23.3682 56.1902 23.6002 56.1902Z" fill="#414042"/>
<path d="M23.1202 0.969997C23.3521 0.969997 23.5402 0.781995 23.5402 0.549995C23.5402 0.318095 23.3521 0.129997 23.1202 0.129997C22.8882 0.129997 22.7002 0.318095 22.7002 0.549995C22.7002 0.781995 22.8882 0.969997 23.1202 0.969997Z" fill="#414042"/>
<path d="M18.4701 3.72C18.702 3.72 18.89 3.532 18.89 3.3C18.89 3.0681 18.702 2.88 18.4701 2.88C18.2381 2.88 18.05 3.0681 18.05 3.3C18.05 3.532 18.2381 3.72 18.4701 3.72Z" fill="#414042"/>
<path d="M13.8199 6.47C14.0519 6.47 14.2399 6.282 14.2399 6.05C14.2399 5.8181 14.0519 5.63 13.8199 5.63C13.588 5.63 13.3999 5.8181 13.3999 6.05C13.3999 6.282 13.588 6.47 13.8199 6.47Z" fill="#414042"/>
<path d="M9.17 9.22C9.4019 9.22 9.59 9.032 9.59 8.8C9.59 8.5681 9.4019 8.38 9.17 8.38C8.938 8.38 8.75 8.5681 8.75 8.8C8.75 9.032 8.938 9.22 9.17 9.22Z" fill="#414042"/>
<path d="M4.5201 11.97C4.752 11.97 4.9401 11.782 4.9401 11.55C4.9401 11.3181 4.752 11.13 4.5201 11.13C4.2881 11.13 4.1001 11.3181 4.1001 11.55C4.1001 11.782 4.2881 11.97 4.5201 11.97Z" fill="#414042"/>
<path d="M23.1202 6.3902C23.3521 6.3902 23.5402 6.2021 23.5402 5.9702C23.5402 5.7382 23.3521 5.5502 23.1202 5.5502C22.8882 5.5502 22.7002 5.7382 22.7002 5.9702C22.7002 6.2021 22.8882 6.3902 23.1202 6.3902Z" fill="#414042"/>
<path d="M18.4701 9.1402C18.702 9.1402 18.89 8.9521 18.89 8.7202C18.89 8.4882 18.702 8.3002 18.4701 8.3002C18.2381 8.3002 18.05 8.4882 18.05 8.7202C18.05 8.9521 18.2381 9.1402 18.4701 9.1402Z" fill="#414042"/>
<path d="M13.8199 11.8902C14.0519 11.8902 14.2399 11.7021 14.2399 11.4702C14.2399 11.2382 14.0519 11.0502 13.8199 11.0502C13.588 11.0502 13.3999 11.2382 13.3999 11.4702C13.3999 11.7021 13.588 11.8902 13.8199 11.8902Z" fill="#414042"/>
<path d="M23.0501 0.969997C23.2821 0.969997 23.4701 0.781995 23.4701 0.549995C23.4701 0.318095 23.2821 0.129997 23.0501 0.129997C22.8182 0.129997 22.6301 0.318095 22.6301 0.549995C22.6301 0.781995 22.8182 0.969997 23.0501 0.969997Z" fill="#414042"/>
<path d="M27.7 3.72C27.932 3.72 28.12 3.532 28.12 3.3C28.12 3.0681 27.932 2.88 27.7 2.88C27.4681 2.88 27.28 3.0681 27.28 3.3C27.28 3.532 27.4681 3.72 27.7 3.72Z" fill="#414042"/>
<path d="M32.3502 6.47C32.5821 6.47 32.7702 6.282 32.7702 6.05C32.7702 5.8181 32.5821 5.63 32.3502 5.63C32.1182 5.63 31.9302 5.8181 31.9302 6.05C31.9302 6.282 32.1182 6.47 32.3502 6.47Z" fill="#414042"/>
<path d="M37.0001 9.22C37.2321 9.22 37.4201 9.032 37.4201 8.8C37.4201 8.5681 37.2321 8.38 37.0001 8.38C36.7681 8.38 36.5801 8.5681 36.5801 8.8C36.5801 9.032 36.7681 9.22 37.0001 9.22Z" fill="#414042"/>
<path d="M41.66 11.97C41.892 11.97 42.08 11.782 42.08 11.55C42.08 11.3181 41.892 11.13 41.66 11.13C41.428 11.13 41.24 11.3181 41.24 11.55C41.24 11.782 41.428 11.97 41.66 11.97Z" fill="#414042"/>
<path d="M23.0501 6.3902C23.2821 6.3902 23.4701 6.2021 23.4701 5.9702C23.4701 5.7382 23.2821 5.5502 23.0501 5.5502C22.8182 5.5502 22.6301 5.7382 22.6301 5.9702C22.6301 6.2021 22.8182 6.3902 23.0501 6.3902Z" fill="#414042"/>
<path d="M27.7 9.1402C27.932 9.1402 28.12 8.9521 28.12 8.7202C28.12 8.4882 27.932 8.3002 27.7 8.3002C27.4681 8.3002 27.28 8.4882 27.28 8.7202C27.28 8.9521 27.4681 9.1402 27.7 9.1402Z" fill="#414042"/>
<path d="M32.3502 11.8902C32.5821 11.8902 32.7702 11.7021 32.7702 11.4702C32.7702 11.2382 32.5821 11.0502 32.3502 11.0502C32.1182 11.0502 31.9302 11.2382 31.9302 11.4702C31.9302 11.7021 32.1182 11.8902 32.3502 11.8902Z" fill="#414042"/>
</svg>
